<?xml version="1.0" encoding="UTF-8" standalone="no"?>
<svg
   xmlns:dc="http://purl.org/dc/elements/1.1/"
   xmlns:cc="http://creativecommons.org/ns#"
   xmlns:rdf="http://www.w3.org/1999/02/22-rdf-syntax-ns#"
   xmlns:svg="http://www.w3.org/2000/svg"
   xmlns="http://www.w3.org/2000/svg"
   xmlns:sodipodi="http://sodipodi.sourceforge.net/DTD/sodipodi-0.dtd"
   xmlns:inkscape="http://www.inkscape.org/namespaces/inkscape"
   version="1.0"
   width="469.25269"
   height="583.61267"
   viewBox="0 0 469.25269 583.61267"
   preserveAspectRatio="xMidYMid meet"
   id="svg3767"
   sodipodi:docname="expomap.svg"
   inkscape:version="0.92.3 (2405546, 2018-03-11)">
  <defs
     id="defs3771" />
  <sodipodi:namedview
     pagecolor="#ffffff"
     bordercolor="#666666"
     borderopacity="1"
     objecttolerance="10"
     gridtolerance="10"
     guidetolerance="10"
     inkscape:pageopacity="0"
     inkscape:pageshadow="2"
     inkscape:window-width="1920"
     inkscape:window-height="986"
     id="namedview3769"
     showgrid="false"
     inkscape:zoom="0.87160335"
     inkscape:cx="78.043509"
     inkscape:cy="288.63988"
     inkscape:window-x="-11"
     inkscape:window-y="-11"
     inkscape:window-maximized="1"
     inkscape:current-layer="layer2"
     fit-margin-top="0"
     fit-margin-left="0"
     fit-margin-right="0"
     fit-margin-bottom="0" />
  <metadata
     id="metadata3743">
Created by potrace 1.15, written by Peter Selinger 2001-2017
<rdf:RDF>
  <cc:Work
     rdf:about="">
    <dc:format>image/svg+xml</dc:format>
    <dc:type
       rdf:resource="http://purl.org/dc/dcmitype/StillImage" />
    <dc:title></dc:title>
  </cc:Work>
</rdf:RDF>
</metadata>
  <g
     inkscape:groupmode="layer"
     id="layer1"
     inkscape:label="Reference Map"
     style="display:inline"
     transform="translate(-9.9398434,-16.071121)"
     sodipodi:insensitive="true">
    <g
       transform="matrix(0.1,0,0,-0.1,7.692522,617.6838)"
       id="g3765"
       style="fill:#000000;stroke:none">
      <path
         d="m 4120,6004 c -381,-24 -525,-36 -535,-44 -5,-4 -53,-10 -105,-14 -199,-13 -310,-24 -450,-45 -80,-12 -221,-33 -315,-47 -93,-14 -200,-30 -237,-36 -38,-5 -68,-14 -68,-19 0,-12 -5,-12 124,10 118,21 386,60 576,85 107,14 171,21 418,46 235,23 475,40 712,50 140,6 288,12 328,14 71,4 72,4 72,-20 0,-25 -23,-58 -33,-48 -8,9 -423,-14 -657,-36 -277,-26 -608,-63 -800,-91 -80,-12 -179,-25 -220,-30 -41,-4 -127,-17 -190,-28 -63,-12 -182,-32 -265,-46 -197,-34 -385,-70 -517,-101 -59,-13 -114,-24 -123,-24 -9,0 -56,-9 -103,-20 -48,-12 -145,-34 -217,-51 -71,-17 -161,-39 -200,-49 -38,-11 -81,-21 -95,-24 -47,-8 -205,-49 -281,-73 -41,-13 -86,-26 -99,-28 -38,-7 -281,-77 -438,-126 -51,-16 -97,-27 -102,-24 -4,3 -11,17 -15,32 -3,16 -13,42 -21,58 -19,42 -54,145 -54,162 0,7 8,13 18,13 13,0 25,-21 46,-82 16,-46 32,-87 37,-92 8,-9 5,-10 222,59 82,26 154,48 160,49 7,1 53,14 102,29 170,51 192,57 326,91 74,18 166,43 204,54 39,12 86,24 105,27 19,3 69,14 110,25 69,17 141,33 400,90 52,11 142,29 200,39 58,11 125,24 150,30 25,6 60,11 78,11 17,0 32,5 32,11 0,8 -11,9 -32,5 -18,-4 -51,-9 -73,-12 -137,-19 -559,-109 -885,-189 -354,-88 -457,-115 -490,-129 -20,-8 -51,-17 -70,-19 -19,-3 -35,-6 -35,-6 0,-1 -75,-26 -167,-55 l -167,-53 -68,40 c -37,22 -82,48 -99,57 -17,10 -41,24 -52,31 -16,10 -26,10 -47,1 -23,-11 -26,-17 -20,-40 16,-66 90,-248 104,-257 56,-37 504,-265 519,-265 7,0 78,20 160,44 81,25 197,59 257,76 61,17 133,38 160,46 28,7 70,18 95,23 25,5 90,21 145,35 266,68 874,198 1120,239 303,52 751,117 816,119 13,0 119,11 234,24 116,12 260,25 320,29 61,3 187,12 280,19 94,7 174,11 178,8 8,-4 -1,-289 -10,-304 -2,-4 -6,-80 -8,-168 -3,-96 -9,-169 -16,-182 -9,-16 -9,-23 0,-26 19,-6 12,-31 -13,-47 -17,-11 -27,-31 -35,-72 -15,-78 -14,-84 14,-115 20,-22 25,-38 25,-78 0,-30 -4,-50 -11,-50 -7,0 -8,-4 -2,-12 5,-8 6,-61 2,-128 -4,-63 -11,-209 -15,-325 -4,-131 -11,-215 -18,-224 -8,-11 -8,-15 2,-18 6,-3 12,-18 12,-35 0,-23 -9,-39 -35,-62 -21,-18 -38,-44 -41,-63 -6,-28 -1,-38 28,-67 20,-20 34,-37 32,-39 -2,-2 -6,-80 -10,-175 -3,-95 -11,-199 -18,-232 -7,-33 -9,-63 -5,-67 4,-5 3,-82 -2,-173 -4,-91 -8,-181 -9,-200 0,-27 -7,-39 -30,-55 -16,-11 -32,-32 -35,-46 -6,-27 20,-107 31,-96 3,3 1,14 -5,25 -26,50 9,102 68,102 32,0 33,-1 27,-32 -3,-18 -8,-100 -12,-183 -3,-82 -13,-294 -23,-470 -12,-222 -14,-322 -7,-327 6,-4 62,-8 124,-8 87,0 113,-3 109,-12 -3,-10 -38,-12 -148,-9 -79,2 -166,5 -194,5 l -50,1 -7,-55 c -4,-30 -10,-108 -13,-172 -6,-97 -10,-118 -22,-118 -14,0 -15,11 -9,77 3,42 6,125 6,185 v 108 h 85 85 v 121 c 0,120 25,653 34,716 4,27 -6,43 -27,43 -1,0 -2,-33 -3,-73 0,-39 -4,-115 -8,-167 -10,-114 -15,-217 -20,-407 -2,-78 -7,-147 -11,-153 -4,-7 -31,-10 -70,-8 -35,1 -66,0 -69,-3 -3,-3 -8,-104 -12,-225 l -7,-221 24,-6 c 13,-4 28,-2 33,3 5,5 10,60 12,122 2,62 6,137 9,166 6,47 9,52 31,52 23,0 24,-1 10,-16 -20,-20 -20,-53 0,-82 22,-32 92,-31 122,1 23,24 29,61 12,72 -26,16 -1,21 108,20 h 117 l -2,48 c -1,27 -3,51 -6,53 -2,2 -55,7 -117,11 l -112,6 6,111 c 3,61 13,248 21,416 9,177 21,315 27,328 9,17 9,37 0,80 -8,41 -8,104 -2,222 5,91 14,260 20,375 16,314 17,331 31,370 11,28 11,42 0,70 -7,19 -10,39 -7,43 3,5 8,101 11,213 3,112 10,314 16,449 10,209 14,251 31,288 18,38 19,46 7,75 l -14,32 -6,-60 c -5,-57 -6,-56 -7,28 -2,65 1,87 11,87 9,0 12,16 10,58 -2,31 2,140 8,242 14,240 16,284 25,473 7,155 6,158 -14,164 -19,5 -20,10 -14,57 4,28 7,85 7,126 v 75 l -160,1 c -88,1 -252,-4 -365,-12 z m 530,-306 c 0,-24 -11,-248 -25,-498 -14,-250 -25,-465 -25,-477 0,-15 -6,-23 -18,-23 -65,0 -87,89 -31,132 l 30,24 9,310 c 5,170 12,323 15,339 2,17 5,70 6,119 1,81 11,115 32,116 4,0 7,-19 7,-42 z m -57,-1160 c -2,-84 -10,-284 -18,-443 -8,-160 -15,-305 -15,-323 0,-25 -4,-32 -20,-32 -11,0 -20,1 -20,3 0,1 11,207 25,457 14,250 25,463 25,473 0,9 6,17 13,17 10,0 12,-32 10,-152 z m -48,-1035 c -11,-155 -25,-451 -26,-583 -2,-205 -10,-274 -32,-278 -17,-3 -18,2 -13,65 9,101 36,643 38,758 2,111 3,115 24,115 13,0 14,-12 9,-77 z"
         id="path3745"
         inkscape:connector-curvature="0" />
      <path
         d="m 220,5100 c -12,-8 -11,-19 9,-80 12,-40 21,-73 19,-74 -1,-2 -34,-13 -73,-25 -38,-13 -79,-26 -90,-31 -11,-5 -29,-10 -40,-12 -29,-5 -30,-40 -3,-81 13,-19 30,-48 39,-63 9,-16 56,-92 104,-169 48,-77 103,-169 122,-205 19,-36 43,-74 53,-85 16,-18 100,-159 100,-167 0,-2 -16,-12 -35,-22 -19,-11 -35,-25 -35,-31 0,-7 30,-20 69,-30 l 69,-17 58,33 c 116,63 111,46 45,151 -56,90 -72,116 -176,290 -27,46 -76,125 -108,177 -32,51 -57,95 -55,96 2,2 28,13 58,25 101,40 120,50 120,60 0,9 -47,148 -65,191 -7,19 -123,79 -151,79 -11,0 -26,-4 -34,-10 z m 75,-97 c 16,-49 30,-92 30,-98 0,-5 -40,-26 -90,-47 -49,-20 -91,-41 -93,-48 -2,-6 2,-19 10,-28 8,-9 36,-53 62,-97 27,-44 81,-134 122,-200 40,-66 93,-151 116,-190 23,-38 53,-85 65,-104 29,-43 29,-47 -7,-66 -29,-15 -30,-14 -46,12 -10,16 -27,44 -39,63 -13,19 -42,67 -65,105 -23,39 -74,123 -113,187 -140,228 -217,357 -217,362 0,3 54,22 120,43 71,22 120,42 120,49 0,8 -9,36 -20,64 -25,63 -25,80 -2,80 14,0 25,-21 47,-87 z"
         id="path3747"
         inkscape:connector-curvature="0" />
      <path
         d="m 603,3839 -92,-50 23,-37 c 29,-46 58,-61 131,-66 l 57,-4 42,-64 c 23,-34 63,-99 89,-143 27,-44 71,-116 98,-160 27,-44 49,-83 49,-86 0,-3 -18,-14 -40,-24 -67,-30 -73,-43 -41,-90 26,-39 29,-40 88,-43 57,-3 69,1 143,41 84,45 96,58 60,67 l -21,5 21,18 22,18 -24,32 c -13,18 -44,66 -67,107 -24,41 -59,98 -76,125 -18,28 -72,115 -120,193 -49,79 -97,147 -108,151 -10,4 -17,11 -15,16 4,13 -40,33 -87,40 -35,4 -52,-2 -132,-46 z m 168,-66 c 18,-32 36,-60 39,-63 4,-3 17,-23 29,-45 12,-22 45,-78 74,-125 29,-47 85,-137 124,-200 80,-129 81,-120 -10,-166 -44,-23 -48,-28 -42,-51 6,-24 -6,-42 -27,-43 -5,0 -48,66 -48,75 0,2 25,17 55,34 30,17 55,33 55,36 0,4 -85,145 -144,240 -53,86 -55,89 -72,120 -19,34 -103,165 -115,179 -4,4 -30,-5 -59,-20 l -51,-29 -20,24 c -11,13 -18,31 -17,40 5,23 33,25 44,2 9,-19 11,-19 69,13 33,19 65,34 72,35 6,0 26,-25 44,-56 z"
         id="path3751"
         inkscape:connector-curvature="0" />
      <path
         d="m 1300,2921 c -43,-9 -180,-81 -187,-99 -3,-7 7,-31 22,-54 l 27,-41 53,6 c 29,3 62,11 74,19 19,11 23,11 31,-2 5,-8 32,-51 59,-95 27,-44 80,-129 116,-190 37,-60 91,-148 120,-195 30,-47 75,-121 101,-165 27,-44 85,-140 131,-213 46,-73 92,-149 103,-170 11,-20 45,-75 74,-122 30,-47 83,-132 117,-190 35,-58 81,-131 102,-163 l 39,-59 -23,-16 c -47,-33 -89,-75 -89,-89 0,-17 38,-73 49,-73 10,0 148,79 188,108 20,14 36,37 42,60 9,32 8,41 -14,72 -13,19 -52,82 -88,140 -35,58 -119,196 -188,308 -68,111 -131,215 -140,230 -9,15 -42,68 -72,117 -31,50 -90,146 -132,215 -42,69 -109,179 -150,245 -40,66 -92,152 -115,190 -24,39 -63,101 -87,138 -41,63 -47,68 -71,62 -22,-5 -25,-4 -14,6 28,29 1,36 -78,20 z m 46,-84 c 12,-17 48,-76 80,-130 33,-53 84,-137 114,-186 97,-158 324,-529 435,-711 67,-112 105,-173 270,-440 80,-131 135,-222 135,-225 0,-2 -27,-18 -61,-36 -36,-19 -65,-42 -70,-56 -5,-13 -14,-23 -20,-23 -11,0 -48,39 -49,52 0,4 25,20 55,34 31,15 59,32 64,38 6,7 -36,86 -119,221 -71,116 -163,266 -204,335 -42,69 -109,179 -150,245 -41,66 -99,161 -129,210 -30,50 -92,151 -137,225 -46,74 -108,176 -138,225 -68,114 -122,195 -128,195 -2,0 -28,-13 -57,-30 -30,-16 -58,-30 -64,-30 -14,0 -49,68 -39,77 4,4 15,-1 24,-12 17,-20 17,-20 82,16 36,20 70,37 75,38 6,0 20,-14 31,-32 z"
         id="path3755"
         inkscape:connector-curvature="0" />
      <path
         d="m 2500,876 c -66,-36 -95,-57 -94,-69 1,-9 -2,-15 -6,-12 -4,2 -16,-5 -26,-16 -10,-11 -39,-29 -65,-41 -26,-11 -67,-40 -90,-65 -40,-43 -42,-47 -28,-71 30,-53 34,-52 230,47 184,93 214,113 250,163 18,25 18,27 2,58 -14,23 -23,30 -41,27 -18,-4 -21,-1 -17,14 9,29 -10,23 -115,-35 z m 110,-103 c 0,-7 -84,-55 -187,-107 -174,-87 -189,-93 -205,-79 -10,9 -18,21 -18,27 0,6 43,33 95,59 91,45 110,60 83,69 -8,3 -3,10 11,18 21,10 26,10 35,-3 10,-13 22,-9 86,24 68,34 76,36 88,21 6,-9 12,-22 12,-29 z"
         id="path3757"
         inkscape:connector-curvature="0" />
      <path
         d="m 4191,668 c -4,-13 -11,-81 -14,-152 -5,-88 -11,-132 -19,-138 -7,-4 -72,-8 -144,-8 h -131 l -7,-31 c -3,-17 -6,-47 -6,-65 v -34 h 127 c 93,0 131,-4 142,-14 13,-11 73,-14 275,-17 l 260,-4 -3,65 c -1,36 -7,70 -12,76 -5,7 -76,14 -181,18 -95,4 -183,10 -196,13 -23,6 -24,6 -20,157 l 3,151 -33,3 c -26,3 -34,-1 -41,-20 z m 56,-135 c -4,-32 -9,-104 -13,-160 l -7,-103 h 24 c 20,-1 388,-28 397,-29 1,-1 2,-5 2,-11 0,-12 -171,-13 -363,-3 -96,5 -130,10 -134,20 -3,8 2,19 11,26 13,9 18,34 22,102 2,50 7,118 10,153 5,58 7,62 31,62 25,0 25,-1 20,-57 z"
         id="path3759"
         inkscape:connector-curvature="0" />
      <path
         d="m 3250,469 c -257,-59 -297,-70 -420,-109 -118,-38 -190,-69 -190,-80 0,-4 -11,-24 -25,-44 -14,-21 -23,-42 -20,-47 4,-5 87,-9 190,-9 h 184 l 20,26 c 12,15 21,33 21,41 0,12 51,14 342,11 l 341,-3 13,55 c 7,30 10,58 8,62 -3,5 -63,8 -135,8 h -129 v 65 c 0,56 -3,65 -17,64 -10,-1 -92,-18 -183,-40 z m 168,-131 -3,-73 h -55 c -30,0 -130,4 -222,9 l -168,8 v -41 -41 l -157,1 h -158 l 70,20 c 39,11 102,28 140,38 226,60 410,115 413,122 2,4 9,6 15,3 7,-2 32,2 57,10 73,23 71,24 68,-56 z"
         id="path3763"
         inkscape:connector-curvature="0" />
    </g>
  </g>
  <g
     inkscape:groupmode="layer"
     id="layer2"
     inkscape:label="Booths"
     style="display:inline"
     sodipodi:insensitive="true"
     transform="translate(-9.9398434,-16.071121)">
    <rect
       id="rect5"
       width="35.041412"
       height="19.560991"
       x="111.24956"
       y="152.45654"
       transform="rotate(-13.4)" />
    <rect
       id="rect6"
       width="34.367321"
       height="19.000599"
       x="174.28246"
       y="149.13597"
       transform="rotate(-12.2)" />
    <rect
       style="display:inline"
       id="rect7"
       width="34.367321"
       height="19.000599"
       x="244.6338"
       y="137.27893"
       transform="rotate(-9.2)" />
    <rect
       style="display:inline"
       id="rect8"
       width="34.367321"
       height="19.000599"
       x="304.65677"
       y="132.36136"
       transform="rotate(-8.4)" />
    <rect
       style="display:inline"
       id="rect9"
       width="34.367321"
       height="19.000599"
       x="376.12772"
       y="110.63851"
       transform="rotate(-4.8)" />
    <rect
       style="display:inline"
       id="rect15"
       width="34.367321"
       height="19.000599"
       x="159.37517"
       y="228.04353"
       transform="rotate(-15)" />
    <rect
       style="display:inline"
       id="rect16"
       width="34.367321"
       height="19.000599"
       x="207.3676"
       y="226.58943"
       transform="rotate(-14.4)" />
    <rect
       style="display:inline"
       id="rect17"
       width="34.367321"
       height="19.000599"
       x="249.93196"
       y="227.63808"
       transform="rotate(-14.8)" />
    <rect
       style="display:inline"
       id="rect18"
       width="34.367321"
       height="19.000599"
       x="160.30025"
       y="261.11807"
       transform="rotate(-15.4)" />
    <rect
       style="display:inline"
       id="rect19"
       width="34.367321"
       height="19.000599"
       x="207.89566"
       y="257.26785"
       transform="rotate(-14.4)" />
    <rect
       style="display:inline"
       id="rect20"
       width="34.367321"
       height="19.000599"
       x="252.09099"
       y="257.57733"
       transform="rotate(-14.8)" />
    <rect
       style="display:inline"
       id="rect23"
       width="34.367321"
       height="19.000599"
       x="253.13124"
       y="312.39438"
       transform="rotate(-14.8)" />
    <rect
       style="display:inline"
       id="rect26"
       width="34.367321"
       height="19.000599"
       x="252.36006"
       y="340.72034"
       transform="rotate(-14.8)" />
    <rect
       style="display:inline"
       id="rect22"
       width="34.367321"
       height="19.000599"
       x="212.12337"
       y="309.25119"
       transform="rotate(-14.4)" />
    <rect
       style="display:inline"
       id="rect25"
       width="34.367321"
       height="19.000599"
       x="212.65143"
       y="339.9296"
       transform="rotate(-14.4)" />
    <rect
       style="display:inline"
       id="rect21"
       width="34.367321"
       height="19.000599"
       x="166.31276"
       y="312.58069"
       transform="rotate(-15)" />
    <rect
       style="display:inline"
       id="rect24"
       width="34.367321"
       height="19.000599"
       x="165.25041"
       y="343.24231"
       transform="rotate(-15.4)" />
    <rect
       style="display:inline"
       id="rect28"
       width="34.367321"
       height="19.000599"
       x="239.25179"
       y="401.44888"
       transform="rotate(-14.8)" />
    <rect
       style="display:inline"
       id="rect30"
       width="34.367321"
       height="19.000599"
       x="240.19753"
       y="426.45255"
       transform="rotate(-14.8)" />
    <rect
       style="display:inline"
       id="rect27"
       width="34.367321"
       height="19.000599"
       x="198.51645"
       y="401.5946"
       transform="rotate(-14.8)" />
    <rect
       style="display:inline"
       id="rect29"
       width="34.367321"
       height="19.000599"
       x="199.35858"
       y="426.99042"
       transform="rotate(-14.8)" />
    <rect
       style="display:inline"
       id="rect10"
       width="34.367321"
       height="19.000599"
       x="-189.57884"
       y="427.36932"
       transform="rotate(-90)" />
    <rect
       style="display:inline"
       id="rect11"
       width="34.367321"
       height="19.000599"
       x="-228.1142"
       y="427.36929"
       transform="rotate(-90)" />
    <rect
       style="display:inline"
       id="rect12"
       width="34.367321"
       height="19.000599"
       x="-297.68073"
       y="427.36932"
       transform="rotate(-90)" />
    <rect
       style="display:inline"
       id="rect13"
       width="34.367321"
       height="19.000599"
       x="-342.70627"
       y="426.96365"
       transform="rotate(-90)" />
    <rect
       style="display:inline"
       id="rect14"
       width="34.367321"
       height="19.000599"
       x="-411.86716"
       y="427.77493"
       transform="rotate(-90)" />
    <rect
       style="display:inline"
       id="rect4"
       width="34.367321"
       height="19.000599"
       x="-284.12387"
       y="-33.058483"
       transform="rotate(-120.6)" />
    <rect
       style="display:inline"
       id="rect3"
       width="34.367321"
       height="19.000599"
       x="-322.66537"
       y="-33.231197"
       transform="rotate(-120.6)" />
    <rect
       style="display:inline"
       id="rect2"
       width="34.367321"
       height="19.000599"
       x="-398.27277"
       y="-31.290262"
       transform="rotate(-120.6)" />
    <rect
       style="display:inline"
       id="rect1"
       width="34.367321"
       height="19.000599"
       x="-437.49747"
       y="-29.51075"
       transform="rotate(-120.6)" />
  </g>
</svg>
