<?xml version="1.0" standalone="no"?>
<!DOCTYPE svg PUBLIC "-//W3C//DTD SVG 20010904//EN"
 "http://www.w3.org/TR/2001/REC-SVG-20010904/DTD/svg10.dtd">
<svg version="1.0" xmlns="http://www.w3.org/2000/svg"
 width="393.000000pt" height="495.000000pt" viewBox="0 0 393.000000 495.000000"
 preserveAspectRatio="xMidYMid meet">
<metadata>
Created by potrace 1.15, written by Peter Selinger 2001-2017
</metadata>
<g transform="translate(0.000000,495.000000) scale(0.100000,-0.100000)"
fill="#000000" stroke="none">
<path d="M3840 4820 c0 -5 -7 -7 -15 -4 -24 10 -645 -38 -875 -67 -41 -5 -97
-11 -125 -14 -85 -9 -440 -58 -545 -75 -108 -18 -246 -41 -290 -50 -25 -5 -74
-14 -110 -20 -74 -14 -286 -56 -345 -70 -22 -5 -65 -14 -95 -20 -236 -48 -878
-217 -1153 -304 l-48 -15 -10 27 c-45 114 -67 188 -60 195 15 15 25 1 51 -73
24 -70 26 -71 54 -66 26 5 218 64 331 101 22 7 58 18 80 24 22 6 78 21 125 35
154 44 555 143 695 172 44 9 109 22 145 30 36 8 118 23 182 34 123 22 204 45
118 35 -25 -3 -65 -10 -90 -15 -25 -5 -74 -14 -110 -20 -36 -6 -90 -17 -120
-24 -30 -8 -82 -19 -115 -26 -268 -53 -789 -190 -1069 -281 l-58 -19 -94 55
c-96 57 -130 66 -141 39 -3 -8 12 -63 33 -122 l39 -107 215 -113 c234 -123
218 -119 335 -82 265 83 984 261 1219 301 33 5 62 12 66 14 6 4 28 8 220 40
52 8 133 22 180 30 78 13 129 20 310 45 76 11 261 33 450 54 74 9 230 20 345
26 116 6 219 13 229 17 18 5 19 1 13 -83 -4 -49 -10 -170 -13 -269 -4 -99 -10
-187 -15 -196 -5 -9 -3 -21 3 -27 9 -9 5 -19 -17 -42 -16 -16 -34 -30 -41 -30
-7 0 -16 -5 -20 -12 -5 -8 0 -9 15 -5 22 5 23 4 17 -37 -5 -34 -3 -48 14 -69
20 -25 20 -34 14 -204 -4 -98 -9 -180 -13 -183 -3 -3 -6 -45 -7 -95 -1 -225
-5 -275 -25 -289 -10 -7 -24 -27 -30 -45 -9 -25 -8 -36 5 -56 9 -14 21 -25 27
-25 10 0 6 -221 -7 -335 -5 -51 -14 -297 -13 -369 0 -30 -6 -44 -25 -60 -14
-12 -28 -34 -32 -51 l-7 -30 30 33 c17 17 40 32 52 32 19 0 21 -6 21 -61 l0
-61 -29 4 c-17 2 -28 1 -26 -3 3 -3 0 -65 -5 -135 -11 -149 -22 -348 -24 -449
l-1 -70 -60 -5 -60 -5 -8 -105 c-4 -58 -6 -143 -5 -190 3 -80 4 -85 26 -88 12
-2 22 0 23 5 0 4 2 49 4 98 6 138 15 197 28 192 7 -3 10 -11 8 -18 -16 -52 7
-89 55 -89 48 0 95 56 64 75 -28 17 -1 24 88 22 l97 -2 3 27 c2 15 -2 36 -8
48 -10 18 -20 20 -101 20 l-91 0 6 89 c4 48 11 196 17 327 8 215 13 289 19
289 1 0 4 90 6 200 3 110 11 308 20 440 8 132 16 301 17 375 9 377 29 734 43
754 16 23 19 62 5 71 -6 3 -12 -14 -14 -37 -2 -29 -4 -19 -5 30 -1 39 2 72 7
72 4 0 11 93 15 208 3 114 8 227 10 252 2 25 7 106 11 181 6 114 5 137 -7 142
-12 4 -14 22 -10 86 3 56 1 81 -7 81 -6 0 -11 -4 -11 -10z m15 -332 c-3 -90
-12 -293 -20 -453 -37 -738 -54 -1105 -55 -1162 0 -19 -40 -16 -62 4 -27 24
-23 60 10 80 15 9 28 18 30 19 2 1 8 112 13 246 5 133 13 314 17 400 7 156 7
157 -17 177 -27 25 -23 65 9 92 16 14 20 39 29 180 10 162 24 506 23 544 -1
16 13 34 26 35 2 0 1 -73 -3 -162z m-82 -1775 c-2 -76 -11 -245 -19 -375 -7
-130 -14 -244 -14 -252 0 -9 -7 -16 -15 -16 -11 0 -13 12 -9 63 15 204 24 368
24 454 0 150 11 263 25 263 9 0 11 -33 8 -137z m-39 -791 c3 -5 -1 -107 -9
-228 -8 -120 -15 -279 -17 -352 l-3 -132 97 0 c61 0 99 -4 104 -11 5 -8 -39
-10 -162 -8 l-169 4 -6 -105 c-4 -58 -7 -122 -8 -142 -1 -28 -5 -38 -17 -38
-15 0 -16 9 -11 68 4 37 7 104 7 149 l0 82 68 3 67 3 2 95 c2 52 10 202 18
332 8 130 15 248 15 262 0 25 13 35 24 18z"/>
<path d="M177 4118 c-16 -12 -16 -16 3 -68 24 -65 21 -69 -65 -90 -30 -7 -55
-17 -55 -23 0 -5 8 -6 17 -2 10 4 41 13 68 21 28 9 56 17 63 19 9 3 7 17 -8
57 -24 62 -25 78 -6 78 12 0 66 -129 66 -158 0 -5 -34 -22 -75 -37 -41 -15
-77 -30 -79 -34 -2 -3 72 -130 165 -281 l169 -275 -23 -18 c-21 -16 -23 -16
-42 9 -11 14 -31 45 -45 69 -60 105 -314 514 -318 511 -4 -4 73 -135 175 -298
40 -65 73 -122 73 -127 0 -5 10 -22 23 -38 27 -33 87 -130 87 -141 0 -4 -14
-15 -31 -24 -17 -10 -28 -22 -24 -27 3 -5 30 -15 59 -21 52 -11 57 -10 115 20
34 18 63 36 66 40 3 4 -67 125 -155 269 -88 144 -161 267 -163 272 -1 6 28 23
65 37 36 15 70 30 73 34 4 4 -5 43 -21 88 -28 83 -40 98 -113 133 -41 20 -43
20 -64 5z"/>
<path d="M495 3069 c-38 -23 -71 -42 -73 -44 -2 -2 4 -17 13 -35 18 -35 50
-50 114 -54 l45 -2 113 -185 c62 -101 113 -187 113 -191 0 -4 -18 -17 -39 -28
-22 -11 -42 -23 -44 -27 -3 -5 6 -25 19 -45 23 -35 28 -38 73 -38 38 0 64 8
113 36 78 44 86 51 64 60 -12 5 -14 10 -6 19 7 9 -31 79 -141 261 -83 137
-161 259 -173 270 -19 19 -84 45 -111 43 -5 0 -41 -18 -80 -40z m263 -264 c83
-137 152 -252 152 -256 0 -4 -25 -18 -55 -33 -57 -27 -63 -34 -44 -53 8 -8 6
-14 -9 -22 -18 -10 -23 -7 -36 21 -9 17 -16 32 -16 34 0 1 20 14 45 29 25 14
44 29 42 33 -15 26 -225 369 -240 390 -9 15 -20 35 -23 45 -8 22 -19 22 -52
-1 -46 -32 -57 -32 -74 -2 -15 26 -15 29 0 35 9 3 21 0 27 -9 9 -12 18 -10 61
14 27 15 54 27 59 26 6 -1 79 -114 163 -251z"/>
<path d="M1075 2301 c-36 -9 -151 -67 -159 -80 -4 -5 4 -26 16 -46 21 -37 22
-37 71 -32 27 4 55 11 62 17 15 12 15 12 86 -104 30 -48 62 -100 71 -115 9
-14 26 -43 38 -65 12 -21 45 -75 74 -120 29 -44 56 -88 60 -96 4 -8 116 -193
249 -410 l243 -395 -48 -45 -49 -45 25 -30 24 -29 64 33 c78 41 115 72 128
106 8 22 2 38 -51 123 -69 112 -64 103 -126 206 -27 43 -56 90 -65 105 -10 14
-21 33 -25 41 -3 8 -30 51 -58 95 -28 44 -63 99 -76 122 -13 23 -114 189 -224
368 -110 180 -206 338 -213 352 -10 17 -20 23 -33 20 -14 -4 -19 -1 -17 11 3
20 -22 24 -67 13z m115 -199 c52 -86 135 -222 184 -302 49 -80 140 -228 201
-330 62 -102 176 -288 254 -414 77 -126 141 -232 141 -235 0 -4 -25 -20 -55
-36 -30 -15 -55 -34 -55 -41 0 -22 -21 -27 -35 -8 -23 30 -18 40 35 65 28 13
50 27 50 31 0 4 -92 157 -204 340 -317 520 -584 956 -611 999 l-25 39 -54 -30
-53 -30 -17 26 c-21 32 -14 68 8 39 13 -18 16 -17 72 13 33 17 61 31 64 31 3
0 48 -70 100 -157z"/>
<path d="M2080 600 c-40 -22 -84 -52 -97 -68 -12 -16 -46 -41 -75 -56 -29 -15
-66 -43 -82 -62 l-29 -35 26 -26 26 -26 167 84 c130 66 172 91 190 118 21 32
22 36 8 63 -10 19 -21 28 -30 24 -8 -3 -14 1 -14 9 0 21 -5 19 -90 -25z m79
-77 c11 -22 5 -26 -151 -104 -151 -75 -163 -79 -175 -63 -7 10 -13 21 -13 24
0 3 36 24 80 45 46 23 79 44 76 51 -7 19 14 34 33 22 13 -8 31 -3 77 20 32 16
60 29 60 29 1 -1 6 -12 13 -24z"/>
<path d="M3482 423 c-5 -10 -12 -67 -15 -127 -4 -73 -10 -112 -19 -117 -7 -5
-61 -9 -120 -9 l-107 0 -6 -44 c-4 -25 -4 -49 0 -55 4 -7 47 -11 109 -11 56 0
106 -4 112 -9 5 -5 107 -11 227 -14 l218 -5 -3 62 -3 61 -40 7 c-22 4 -90 7
-152 7 -61 1 -119 4 -128 7 -14 6 -16 24 -14 133 l1 126 -25 3 c-17 2 -29 -3
-35 -15z m44 -115 c-3 -29 -8 -89 -12 -134 l-6 -81 63 -7 c35 -3 114 -9 177
-13 104 -6 136 -13 113 -27 -9 -6 -403 14 -411 21 -2 2 2 14 9 25 8 12 15 54
17 93 9 150 14 175 36 175 19 0 20 -4 14 -52z"/>
<path d="M2810 280 c-14 -4 -52 -13 -85 -20 -209 -43 -423 -104 -496 -141 -39
-19 -85 -81 -74 -99 8 -14 280 -13 306 1 11 5 24 21 29 35 l10 25 282 -3 282
-3 12 48 c9 36 9 49 1 52 -7 3 -57 6 -112 7 l-100 3 -3 53 c-3 54 -7 57 -52
42z m27 -135 c-2 -31 -7 -58 -10 -61 -2 -3 -67 0 -143 5 -77 6 -157 11 -179
11 -41 0 -41 0 -37 -35 l4 -35 -138 1 c-89 1 -128 4 -109 9 17 4 71 19 120 32
50 14 153 42 230 63 77 21 142 42 143 47 2 4 7 6 11 4 3 -2 22 -1 41 4 72 17
72 16 67 -45z"/>
</g>
</svg>
