<?xml version="1.0" encoding="UTF-8" standalone="no"?>
<svg
   xmlns:dc="http://purl.org/dc/elements/1.1/"
   xmlns:cc="http://creativecommons.org/ns#"
   xmlns:rdf="http://www.w3.org/1999/02/22-rdf-syntax-ns#"
   xmlns:svg="http://www.w3.org/2000/svg"
   xmlns="http://www.w3.org/2000/svg"
   xmlns:sodipodi="http://sodipodi.sourceforge.net/DTD/sodipodi-0.dtd"
   xmlns:inkscape="http://www.inkscape.org/namespaces/inkscape"
   version="1.0"
   width="469.25269"
   height="583.61267"
   viewBox="0 0 469.25269 583.61267"
   preserveAspectRatio="xMidYMid meet"
   id="svg3767"
   sodipodi:docname="expomap.svg"
   inkscape:version="0.92.3 (2405546, 2018-03-11)">
  <defs
     id="defs3771" />
  <sodipodi:namedview
     pagecolor="#ffffff"
     bordercolor="#666666"
     borderopacity="1"
     objecttolerance="10"
     gridtolerance="10"
     guidetolerance="10"
     inkscape:pageopacity="0"
     inkscape:pageshadow="2"
     inkscape:window-width="1920"
     inkscape:window-height="986"
     id="namedview3769"
     showgrid="false"
     inkscape:zoom="1.3073739"
     inkscape:cx="234.62634"
     inkscape:cy="291.80633"
     inkscape:window-x="-11"
     inkscape:window-y="-11"
     inkscape:window-maximized="1"
     inkscape:current-layer="layer2"
     fit-margin-top="0"
     fit-margin-left="0"
     fit-margin-right="0"
     fit-margin-bottom="0" />
  <metadata
     id="metadata3743">
Created by potrace 1.15, written by Peter Selinger 2001-2017
<rdf:RDF>
  <cc:Work
     rdf:about="">
    <dc:format>image/svg+xml</dc:format>
    <dc:type
       rdf:resource="http://purl.org/dc/dcmitype/StillImage" />
    <dc:title />
  </cc:Work>
</rdf:RDF>
</metadata>
  <g
     inkscape:groupmode="layer"
     id="layer1"
     inkscape:label="Reference Map"
     style="display:inline"
     transform="translate(-9.9398434,-16.071121)"
     sodipodi:insensitive="true">
    <g
       transform="matrix(0.1,0,0,-0.1,7.692522,617.6838)"
       id="g3765"
       style="fill:#000000;stroke:none">
      <path
         d="m 4120,6004 c -381,-24 -525,-36 -535,-44 -5,-4 -53,-10 -105,-14 -199,-13 -310,-24 -450,-45 -80,-12 -221,-33 -315,-47 -93,-14 -200,-30 -237,-36 -38,-5 -68,-14 -68,-19 0,-12 -5,-12 124,10 118,21 386,60 576,85 107,14 171,21 418,46 235,23 475,40 712,50 140,6 288,12 328,14 71,4 72,4 72,-20 0,-25 -23,-58 -33,-48 -8,9 -423,-14 -657,-36 -277,-26 -608,-63 -800,-91 -80,-12 -179,-25 -220,-30 -41,-4 -127,-17 -190,-28 -63,-12 -182,-32 -265,-46 -197,-34 -385,-70 -517,-101 -59,-13 -114,-24 -123,-24 -9,0 -56,-9 -103,-20 -48,-12 -145,-34 -217,-51 -71,-17 -161,-39 -200,-49 -38,-11 -81,-21 -95,-24 -47,-8 -205,-49 -281,-73 -41,-13 -86,-26 -99,-28 -38,-7 -281,-77 -438,-126 -51,-16 -97,-27 -102,-24 -4,3 -11,17 -15,32 -3,16 -13,42 -21,58 -19,42 -54,145 -54,162 0,7 8,13 18,13 13,0 25,-21 46,-82 16,-46 32,-87 37,-92 8,-9 5,-10 222,59 82,26 154,48 160,49 7,1 53,14 102,29 170,51 192,57 326,91 74,18 166,43 204,54 39,12 86,24 105,27 19,3 69,14 110,25 69,17 141,33 400,90 52,11 142,29 200,39 58,11 125,24 150,30 25,6 60,11 78,11 17,0 32,5 32,11 0,8 -11,9 -32,5 -18,-4 -51,-9 -73,-12 -137,-19 -559,-109 -885,-189 -354,-88 -457,-115 -490,-129 -20,-8 -51,-17 -70,-19 -19,-3 -35,-6 -35,-6 0,-1 -75,-26 -167,-55 l -167,-53 -68,40 c -37,22 -82,48 -99,57 -17,10 -41,24 -52,31 -16,10 -26,10 -47,1 -23,-11 -26,-17 -20,-40 16,-66 90,-248 104,-257 56,-37 504,-265 519,-265 7,0 78,20 160,44 81,25 197,59 257,76 61,17 133,38 160,46 28,7 70,18 95,23 25,5 90,21 145,35 266,68 874,198 1120,239 303,52 751,117 816,119 13,0 119,11 234,24 116,12 260,25 320,29 61,3 187,12 280,19 94,7 174,11 178,8 8,-4 -1,-289 -10,-304 -2,-4 -6,-80 -8,-168 -3,-96 -9,-169 -16,-182 -9,-16 -9,-23 0,-26 19,-6 12,-31 -13,-47 -17,-11 -27,-31 -35,-72 -15,-78 -14,-84 14,-115 20,-22 25,-38 25,-78 0,-30 -4,-50 -11,-50 -7,0 -8,-4 -2,-12 5,-8 6,-61 2,-128 -4,-63 -11,-209 -15,-325 -4,-131 -11,-215 -18,-224 -8,-11 -8,-15 2,-18 6,-3 12,-18 12,-35 0,-23 -9,-39 -35,-62 -21,-18 -38,-44 -41,-63 -6,-28 -1,-38 28,-67 20,-20 34,-37 32,-39 -2,-2 -6,-80 -10,-175 -3,-95 -11,-199 -18,-232 -7,-33 -9,-63 -5,-67 4,-5 3,-82 -2,-173 -4,-91 -8,-181 -9,-200 0,-27 -7,-39 -30,-55 -16,-11 -32,-32 -35,-46 -6,-27 20,-107 31,-96 3,3 1,14 -5,25 -26,50 9,102 68,102 32,0 33,-1 27,-32 -3,-18 -8,-100 -12,-183 -3,-82 -13,-294 -23,-470 -12,-222 -14,-322 -7,-327 6,-4 62,-8 124,-8 87,0 113,-3 109,-12 -3,-10 -38,-12 -148,-9 -79,2 -166,5 -194,5 l -50,1 -7,-55 c -4,-30 -10,-108 -13,-172 -6,-97 -10,-118 -22,-118 -14,0 -15,11 -9,77 3,42 6,125 6,185 v 108 h 85 85 v 121 c 0,120 25,653 34,716 4,27 -6,43 -27,43 -1,0 -2,-33 -3,-73 0,-39 -4,-115 -8,-167 -10,-114 -15,-217 -20,-407 -2,-78 -7,-147 -11,-153 -4,-7 -31,-10 -70,-8 -35,1 -66,0 -69,-3 -3,-3 -8,-104 -12,-225 l -7,-221 24,-6 c 13,-4 28,-2 33,3 5,5 10,60 12,122 2,62 6,137 9,166 6,47 9,52 31,52 23,0 24,-1 10,-16 -20,-20 -20,-53 0,-82 22,-32 92,-31 122,1 23,24 29,61 12,72 -26,16 -1,21 108,20 h 117 l -2,48 c -1,27 -3,51 -6,53 -2,2 -55,7 -117,11 l -112,6 6,111 c 3,61 13,248 21,416 9,177 21,315 27,328 9,17 9,37 0,80 -8,41 -8,104 -2,222 5,91 14,260 20,375 16,314 17,331 31,370 11,28 11,42 0,70 -7,19 -10,39 -7,43 3,5 8,101 11,213 3,112 10,314 16,449 10,209 14,251 31,288 18,38 19,46 7,75 l -14,32 -6,-60 c -5,-57 -6,-56 -7,28 -2,65 1,87 11,87 9,0 12,16 10,58 -2,31 2,140 8,242 14,240 16,284 25,473 7,155 6,158 -14,164 -19,5 -20,10 -14,57 4,28 7,85 7,126 v 75 l -160,1 c -88,1 -252,-4 -365,-12 z m 530,-306 c 0,-24 -11,-248 -25,-498 -14,-250 -25,-465 -25,-477 0,-15 -6,-23 -18,-23 -65,0 -87,89 -31,132 l 30,24 9,310 c 5,170 12,323 15,339 2,17 5,70 6,119 1,81 11,115 32,116 4,0 7,-19 7,-42 z m -57,-1160 c -2,-84 -10,-284 -18,-443 -8,-160 -15,-305 -15,-323 0,-25 -4,-32 -20,-32 -11,0 -20,1 -20,3 0,1 11,207 25,457 14,250 25,463 25,473 0,9 6,17 13,17 10,0 12,-32 10,-152 z m -48,-1035 c -11,-155 -25,-451 -26,-583 -2,-205 -10,-274 -32,-278 -17,-3 -18,2 -13,65 9,101 36,643 38,758 2,111 3,115 24,115 13,0 14,-12 9,-77 z"
         id="path3745"
         inkscape:connector-curvature="0" />
      <path
         d="m 220,5100 c -12,-8 -11,-19 9,-80 12,-40 21,-73 19,-74 -1,-2 -34,-13 -73,-25 -38,-13 -79,-26 -90,-31 -11,-5 -29,-10 -40,-12 -29,-5 -30,-40 -3,-81 13,-19 30,-48 39,-63 9,-16 56,-92 104,-169 48,-77 103,-169 122,-205 19,-36 43,-74 53,-85 16,-18 100,-159 100,-167 0,-2 -16,-12 -35,-22 -19,-11 -35,-25 -35,-31 0,-7 30,-20 69,-30 l 69,-17 58,33 c 116,63 111,46 45,151 -56,90 -72,116 -176,290 -27,46 -76,125 -108,177 -32,51 -57,95 -55,96 2,2 28,13 58,25 101,40 120,50 120,60 0,9 -47,148 -65,191 -7,19 -123,79 -151,79 -11,0 -26,-4 -34,-10 z m 75,-97 c 16,-49 30,-92 30,-98 0,-5 -40,-26 -90,-47 -49,-20 -91,-41 -93,-48 -2,-6 2,-19 10,-28 8,-9 36,-53 62,-97 27,-44 81,-134 122,-200 40,-66 93,-151 116,-190 23,-38 53,-85 65,-104 29,-43 29,-47 -7,-66 -29,-15 -30,-14 -46,12 -10,16 -27,44 -39,63 -13,19 -42,67 -65,105 -23,39 -74,123 -113,187 -140,228 -217,357 -217,362 0,3 54,22 120,43 71,22 120,42 120,49 0,8 -9,36 -20,64 -25,63 -25,80 -2,80 14,0 25,-21 47,-87 z"
         id="path3747"
         inkscape:connector-curvature="0" />
      <path
         d="m 603,3839 -92,-50 23,-37 c 29,-46 58,-61 131,-66 l 57,-4 42,-64 c 23,-34 63,-99 89,-143 27,-44 71,-116 98,-160 27,-44 49,-83 49,-86 0,-3 -18,-14 -40,-24 -67,-30 -73,-43 -41,-90 26,-39 29,-40 88,-43 57,-3 69,1 143,41 84,45 96,58 60,67 l -21,5 21,18 22,18 -24,32 c -13,18 -44,66 -67,107 -24,41 -59,98 -76,125 -18,28 -72,115 -120,193 -49,79 -97,147 -108,151 -10,4 -17,11 -15,16 4,13 -40,33 -87,40 -35,4 -52,-2 -132,-46 z m 168,-66 c 18,-32 36,-60 39,-63 4,-3 17,-23 29,-45 12,-22 45,-78 74,-125 29,-47 85,-137 124,-200 80,-129 81,-120 -10,-166 -44,-23 -48,-28 -42,-51 6,-24 -6,-42 -27,-43 -5,0 -48,66 -48,75 0,2 25,17 55,34 30,17 55,33 55,36 0,4 -85,145 -144,240 -53,86 -55,89 -72,120 -19,34 -103,165 -115,179 -4,4 -30,-5 -59,-20 l -51,-29 -20,24 c -11,13 -18,31 -17,40 5,23 33,25 44,2 9,-19 11,-19 69,13 33,19 65,34 72,35 6,0 26,-25 44,-56 z"
         id="path3751"
         inkscape:connector-curvature="0" />
      <path
         d="m 1300,2921 c -43,-9 -180,-81 -187,-99 -3,-7 7,-31 22,-54 l 27,-41 53,6 c 29,3 62,11 74,19 19,11 23,11 31,-2 5,-8 32,-51 59,-95 27,-44 80,-129 116,-190 37,-60 91,-148 120,-195 30,-47 75,-121 101,-165 27,-44 85,-140 131,-213 46,-73 92,-149 103,-170 11,-20 45,-75 74,-122 30,-47 83,-132 117,-190 35,-58 81,-131 102,-163 l 39,-59 -23,-16 c -47,-33 -89,-75 -89,-89 0,-17 38,-73 49,-73 10,0 148,79 188,108 20,14 36,37 42,60 9,32 8,41 -14,72 -13,19 -52,82 -88,140 -35,58 -119,196 -188,308 -68,111 -131,215 -140,230 -9,15 -42,68 -72,117 -31,50 -90,146 -132,215 -42,69 -109,179 -150,245 -40,66 -92,152 -115,190 -24,39 -63,101 -87,138 -41,63 -47,68 -71,62 -22,-5 -25,-4 -14,6 28,29 1,36 -78,20 z m 46,-84 c 12,-17 48,-76 80,-130 33,-53 84,-137 114,-186 97,-158 324,-529 435,-711 67,-112 105,-173 270,-440 80,-131 135,-222 135,-225 0,-2 -27,-18 -61,-36 -36,-19 -65,-42 -70,-56 -5,-13 -14,-23 -20,-23 -11,0 -48,39 -49,52 0,4 25,20 55,34 31,15 59,32 64,38 6,7 -36,86 -119,221 -71,116 -163,266 -204,335 -42,69 -109,179 -150,245 -41,66 -99,161 -129,210 -30,50 -92,151 -137,225 -46,74 -108,176 -138,225 -68,114 -122,195 -128,195 -2,0 -28,-13 -57,-30 -30,-16 -58,-30 -64,-30 -14,0 -49,68 -39,77 4,4 15,-1 24,-12 17,-20 17,-20 82,16 36,20 70,37 75,38 6,0 20,-14 31,-32 z"
         id="path3755"
         inkscape:connector-curvature="0" />
      <path
         d="m 2500,876 c -66,-36 -95,-57 -94,-69 1,-9 -2,-15 -6,-12 -4,2 -16,-5 -26,-16 -10,-11 -39,-29 -65,-41 -26,-11 -67,-40 -90,-65 -40,-43 -42,-47 -28,-71 30,-53 34,-52 230,47 184,93 214,113 250,163 18,25 18,27 2,58 -14,23 -23,30 -41,27 -18,-4 -21,-1 -17,14 9,29 -10,23 -115,-35 z m 110,-103 c 0,-7 -84,-55 -187,-107 -174,-87 -189,-93 -205,-79 -10,9 -18,21 -18,27 0,6 43,33 95,59 91,45 110,60 83,69 -8,3 -3,10 11,18 21,10 26,10 35,-3 10,-13 22,-9 86,24 68,34 76,36 88,21 6,-9 12,-22 12,-29 z"
         id="path3757"
         inkscape:connector-curvature="0" />
      <path
         d="m 4191,668 c -4,-13 -11,-81 -14,-152 -5,-88 -11,-132 -19,-138 -7,-4 -72,-8 -144,-8 h -131 l -7,-31 c -3,-17 -6,-47 -6,-65 v -34 h 127 c 93,0 131,-4 142,-14 13,-11 73,-14 275,-17 l 260,-4 -3,65 c -1,36 -7,70 -12,76 -5,7 -76,14 -181,18 -95,4 -183,10 -196,13 -23,6 -24,6 -20,157 l 3,151 -33,3 c -26,3 -34,-1 -41,-20 z m 56,-135 c -4,-32 -9,-104 -13,-160 l -7,-103 h 24 c 20,-1 388,-28 397,-29 1,-1 2,-5 2,-11 0,-12 -171,-13 -363,-3 -96,5 -130,10 -134,20 -3,8 2,19 11,26 13,9 18,34 22,102 2,50 7,118 10,153 5,58 7,62 31,62 25,0 25,-1 20,-57 z"
         id="path3759"
         inkscape:connector-curvature="0" />
      <path
         d="m 3250,469 c -257,-59 -297,-70 -420,-109 -118,-38 -190,-69 -190,-80 0,-4 -11,-24 -25,-44 -14,-21 -23,-42 -20,-47 4,-5 87,-9 190,-9 h 184 l 20,26 c 12,15 21,33 21,41 0,12 51,14 342,11 l 341,-3 13,55 c 7,30 10,58 8,62 -3,5 -63,8 -135,8 h -129 v 65 c 0,56 -3,65 -17,64 -10,-1 -92,-18 -183,-40 z m 168,-131 -3,-73 h -55 c -30,0 -130,4 -222,9 l -168,8 v -41 -41 l -157,1 h -158 l 70,20 c 39,11 102,28 140,38 226,60 410,115 413,122 2,4 9,6 15,3 7,-2 32,2 57,10 73,23 71,24 68,-56 z"
         id="path3763"
         inkscape:connector-curvature="0" />
    </g>
  </g>
  <g
     inkscape:groupmode="layer"
     id="layer2"
     inkscape:label="Booths"
     style="display:inline"
     transform="translate(-9.9398434,-16.071121)">
    <rect
       id="rect5"
       width="35.041412"
       height="19.560991"
       x="111.24956"
       y="152.45654"
       transform="rotate(-13.4)" />
    <rect
       id="rect6"
       width="34.367321"
       height="19.000599"
       x="174.28246"
       y="149.13597"
       transform="rotate(-12.2)" />
    <rect
       style="display:inline"
       id="rect7"
       width="34.367321"
       height="19.000599"
       x="244.6338"
       y="137.27893"
       transform="rotate(-9.2)" />
    <rect
       style="display:inline"
       id="rect8"
       width="34.367321"
       height="19.000599"
       x="304.65677"
       y="132.36136"
       transform="rotate(-8.4)" />
    <rect
       style="display:inline"
       id="rect9"
       width="34.367321"
       height="19.000599"
       x="376.12772"
       y="110.63851"
       transform="rotate(-4.8)" />
    <rect
       style="display:inline"
       id="rect15"
       width="34.367321"
       height="19.000599"
       x="159.37517"
       y="228.04353"
       transform="rotate(-15)" />
    <rect
       style="display:inline"
       id="rect16"
       width="34.367321"
       height="19.000599"
       x="207.3676"
       y="226.58943"
       transform="rotate(-14.4)" />
    <rect
       style="display:inline"
       id="rect17"
       width="34.367321"
       height="19.000599"
       x="249.93196"
       y="227.63808"
       transform="rotate(-14.8)" />
    <rect
       style="display:inline"
       id="rect18"
       width="34.367321"
       height="19.000599"
       x="160.30025"
       y="261.11807"
       transform="rotate(-15.4)" />
    <rect
       style="display:inline"
       id="rect19"
       width="34.367321"
       height="19.000599"
       x="207.89566"
       y="257.26785"
       transform="rotate(-14.4)" />
    <rect
       style="display:inline"
       id="rect20"
       width="34.367321"
       height="19.000599"
       x="252.09099"
       y="257.57733"
       transform="rotate(-14.8)" />
    <rect
       style="display:inline"
       id="rect23"
       width="34.367321"
       height="19.000599"
       x="253.13124"
       y="312.39438"
       transform="rotate(-14.8)" />
    <rect
       style="display:inline"
       id="rect26"
       width="34.367321"
       height="19.000599"
       x="252.36006"
       y="340.72034"
       transform="rotate(-14.8)" />
    <rect
       style="display:inline"
       id="rect22"
       width="34.367321"
       height="19.000599"
       x="212.12337"
       y="309.25119"
       transform="rotate(-14.4)" />
    <rect
       style="display:inline"
       id="rect25"
       width="34.367321"
       height="19.000599"
       x="212.65143"
       y="339.9296"
       transform="rotate(-14.4)" />
    <rect
       style="display:inline"
       id="rect21"
       width="34.367321"
       height="19.000599"
       x="166.31276"
       y="312.58069"
       transform="rotate(-15)" />
    <rect
       style="display:inline"
       id="rect24"
       width="34.367321"
       height="19.000599"
       x="165.25041"
       y="343.24231"
       transform="rotate(-15.4)" />
    <rect
       style="display:inline"
       id="rect28"
       width="34.367321"
       height="19.000599"
       x="239.25179"
       y="401.44888"
       transform="rotate(-14.8)" />
    <rect
       style="display:inline"
       id="rect30"
       width="34.367321"
       height="19.000599"
       x="240.19753"
       y="426.45255"
       transform="rotate(-14.8)" />
    <rect
       style="display:inline"
       id="rect27"
       width="34.367321"
       height="19.000599"
       x="198.51645"
       y="401.5946"
       transform="rotate(-14.8)" />
    <rect
       style="display:inline"
       id="rect29"
       width="34.367321"
       height="19.000599"
       x="199.35858"
       y="426.99042"
       transform="rotate(-14.8)" />
    <rect
       style="display:inline"
       id="rect10"
       width="34.367321"
       height="19.000599"
       x="-189.57884"
       y="427.36932"
       transform="rotate(-90)" />
    <rect
       style="display:inline"
       id="rect11"
       width="34.367321"
       height="19.000599"
       x="-228.1142"
       y="427.36929"
       transform="rotate(-90)" />
    <rect
       style="display:inline"
       id="rect12"
       width="34.367321"
       height="19.000599"
       x="-297.68073"
       y="427.36932"
       transform="rotate(-90)" />
    <rect
       style="display:inline"
       id="rect13"
       width="34.367321"
       height="19.000599"
       x="-342.70627"
       y="426.96365"
       transform="rotate(-90)" />
    <rect
       style="display:inline"
       id="rect14"
       width="34.367321"
       height="19.000599"
       x="-411.86716"
       y="427.77493"
       transform="rotate(-90)" />
    <rect
       style="display:inline"
       id="rect4"
       width="34.367321"
       height="19.000599"
       x="-284.12387"
       y="-33.058483"
       transform="rotate(-120.6)" />
    <rect
       style="display:inline"
       id="rect3"
       width="34.367321"
       height="19.000599"
       x="-322.66537"
       y="-33.231197"
       transform="rotate(-120.6)" />
    <rect
       style="display:inline"
       id="rect2"
       width="34.367321"
       height="19.000599"
       x="-398.27277"
       y="-31.290262"
       transform="rotate(-120.6)" />
    <rect
       style="display:inline"
       id="rect1"
       width="34.367321"
       height="19.000599"
       x="-437.49747"
       y="-29.51075"
       transform="rotate(-120.6)" />
    <path
       style="fill:#00ffff;stroke-width:1.14731085"
       d="m 137.46069,119.89408 c -0.70438,-2.7139 -1.74993,-6.71235 -2.32345,-8.88544 -0.57352,-2.17309 -0.92769,-4.0365 -0.78704,-4.1409 1.04403,-0.77494 32.10089,-7.485051 32.55266,-7.033285 0.31737,0.317375 1.52705,4.270335 2.68816,8.784365 1.53462,5.96605 1.74562,8.31706 0.77268,8.60916 -0.73614,0.22102 -7.27577,1.78658 -14.53251,3.47903 -7.25675,1.69245 -14.07062,3.31214 -15.14195,3.59931 -1.48981,0.39935 -2.24904,-0.63824 -3.22855,-4.41224 z"
       id="path54"
       inkscape:connector-curvature="0"
       transform="translate(9.9398434,16.071121)" />
    <path
       style="fill:#00ffff;stroke-width:1.14731085"
       d="m 194.48203,102.14904 c -1.0527,-4.850948 -1.79008,-8.904771 -1.63862,-9.008491 0.91225,-0.624718 31.89987,-6.581775 32.21222,-6.192476 0.21013,0.2619 1.16773,4.157838 2.12801,8.657641 l 1.74595,8.181456 -14.46347,3.07386 c -7.9549,1.69062 -15.27496,3.30652 -16.26678,3.59089 -1.42308,0.40802 -2.2069,-1.34269 -3.71731,-8.30288 z"
       id="path56"
       inkscape:connector-curvature="0"
       transform="translate(9.9398434,16.071121)" />
    <path
       style="fill:#00ffff;stroke-width:1.14731085"
       d="m 255.64909,90.303565 c -0.76908,-4.55967 -0.95292,-8.664641 -0.4105,-9.166674 0.80982,-0.74954 24.41858,-4.725684 30.17937,-5.082754 1.6025,-0.09933 2.02658,1.365676 3.82128,13.200769 l 0.62556,4.125272 -13.38002,1.997859 c -7.35902,1.098823 -14.74417,2.264522 -16.41145,2.590443 -2.95786,0.578201 -3.06523,0.392174 -4.42424,-7.664915 z"
       id="path58"
       inkscape:connector-curvature="0"
       transform="translate(9.9398434,16.071121)" />
    <path
       style="fill:#00ffff;stroke-width:1.14731085"
       d="m 313.73191,85.990115 c -0.32055,-1.104286 -0.9269,-4.942697 -1.34745,-8.529802 l -0.76464,-6.522007 3.85158,-0.663153 c 14.33548,-2.468236 27.90638,-4.000151 28.67018,-3.236356 0.49593,0.495932 1.05196,4.484603 1.23562,8.863713 l 0.33394,7.962018 -12.62042,1.992405 c -16.45613,2.597953 -18.639,2.612971 -19.35881,0.133182 z"
       id="path60"
       inkscape:connector-curvature="0"
       transform="translate(9.9398434,16.071121)" />
    <path
       style="fill:#00ffff;stroke-width:1.14731085"
       d="m 375.72576,75.215313 c -0.40604,-3.381418 -0.74274,-7.487076 -0.74822,-9.123684 l -0.01,-2.975651 16.22125,-1.359088 c 8.92169,-0.747498 16.3451,-1.21547 16.49649,-1.039937 0.15137,0.175533 0.63333,4.246934 1.071,9.047557 l 0.79577,8.728406 -11.26887,0.781591 c -6.19788,0.429875 -13.64269,1.075722 -16.54403,1.435216 l -5.27515,0.653623 z"
       id="path62"
       inkscape:connector-curvature="0"
       transform="translate(9.9398434,16.071121)" />
    <path
       style="fill:#ffff00;stroke-width:1.14731085"
       d="m 208.00512,179.34316 c -1.70211,-5.27969 -4.2235,-15.74908 -3.86001,-16.02763 0.24573,-0.18831 6.78314,-2.00199 14.52757,-4.0304 7.74443,-2.02841 14.76046,-3.94884 15.59116,-4.26761 1.05314,-0.40412 2.133,1.78066 3.56699,7.21677 1.13113,4.28799 2.1176,8.24508 2.19215,8.79353 0.21514,1.58267 -31.53043,9.8273 -32.01786,8.31534 z"
       id="path64"
       inkscape:connector-curvature="0"
       transform="translate(9.9398434,16.071121)" />
    <path
       style="fill:#ffff00;stroke-width:1.14731085"
       d="m 251.02876,164.58091 c -0.69573,-2.68184 -1.70436,-6.54592 -2.24139,-8.58685 -0.94183,-3.57933 -0.82747,-3.74982 3.22855,-4.81309 14.47503,-3.79458 28.03626,-7.02495 28.26379,-6.73263 0.72632,0.93318 4.08036,16.18252 3.65323,16.60965 -0.40173,0.40173 -30.22163,8.39899 -31.31787,8.39899 -0.17673,0 -0.89057,-2.19423 -1.58631,-4.87607 z"
       id="path66"
       inkscape:connector-curvature="0"
       transform="translate(9.9398434,16.071121)" />
    <path
       style="fill:#ffff00;stroke-width:1.14731085"
       d="m 292.92266,149.903 c -1.13623,-4.63646 -1.56431,-8.56519 -0.99273,-9.1108 1.02615,-0.97953 27.14054,-8.04917 29.73264,-8.04917 1.30232,0 5.98603,15.61759 4.96801,16.56557 -0.23305,0.21701 -6.61921,2.02359 -14.19146,4.01462 -7.57225,1.99103 -14.61173,3.87009 -15.64328,4.17569 -1.4974,0.44362 -2.2783,-1.08784 -3.87318,-7.59591 z"
       id="path68"
       inkscape:connector-curvature="0"
       transform="translate(9.9398434,16.071121)" />
    <path
       style="fill:#ffff00;stroke-width:1.14731085"
       d="m 304.42511,184.0852 c -1.62261,-4.80328 -4.18259,-14.84882 -3.85207,-15.11582 0.21613,-0.17459 7.4837,-2.15824 16.15014,-4.40809 l 15.75718,-4.09064 1.23911,4.77999 c 0.68151,2.629 1.68876,6.48703 2.23834,8.5734 0.70439,2.67411 0.59809,3.93066 -0.36028,4.25855 -3.69738,1.265 -27.93804,7.43348 -29.2178,7.435 -0.80858,9.6e-4 -1.68816,-0.64362 -1.95462,-1.43239 z"
       id="path70"
       inkscape:connector-curvature="0"
       transform="translate(9.9398434,16.071121)" />
    <path
       style="fill:#ffff00;stroke-width:1.14731085"
       d="m 258.66268,191.91118 c -1.02748,-4.09039 -1.86814,-8.12477 -1.86814,-8.96527 0,-1.00971 5.27501,-2.82354 15.54771,-5.34615 8.55123,-2.09988 15.70422,-3.62939 15.89552,-3.39892 0.75491,0.90948 4.44409,15.96768 4.01133,16.3731 -0.25387,0.23783 -6.65705,2.06145 -14.22931,4.05247 -7.57225,1.99103 -14.60501,3.86796 -15.62835,4.17096 -1.4647,0.43368 -2.25814,-1.03163 -3.72876,-6.88619 z"
       id="path72"
       inkscape:connector-curvature="0"
       transform="translate(9.9398434,16.071121)" />
    <path
       style="fill:#ffff00;stroke-width:1.14731085"
       d="m 216.9953,202.49338 c -1.27095,-4.60307 -2.18697,-8.52664 -2.03559,-8.71906 0.15138,-0.19241 7.33927,-2.33395 15.97308,-4.75896 10.70125,-3.0057 15.83369,-3.98991 16.12463,-3.09209 1.69222,5.2221 4.23906,15.78337 3.8737,16.06349 -0.24573,0.1884 -6.90041,2.06165 -14.78817,4.16276 -7.88777,2.10112 -14.90286,4.02111 -15.58911,4.26665 -0.70868,0.25356 -2.24605,-3.16925 -3.55854,-7.92279 z"
       id="path74"
       inkscape:connector-curvature="0"
       transform="translate(9.9398434,16.071121)" />
    <path
       style="fill:#ffaaaa;stroke-width:1.14731085"
       d="m 234.56234,251.9859 c -1.14886,-4.45975 -1.88951,-8.30797 -1.64589,-8.55159 0.71692,-0.71691 30.91497,-8.81328 31.29951,-8.39167 0.64921,0.71181 5.02716,17.02072 4.56903,17.02072 -0.24924,0 -7.12258,1.80702 -15.27409,4.01559 -8.15151,2.20858 -15.27965,4.01559 -15.84032,4.01559 -0.56067,0 -1.95938,-3.64889 -3.10824,-8.10864 z"
       id="path76"
       inkscape:connector-curvature="0"
       transform="translate(9.9398434,16.071121)" />
    <path
       style="fill:#ffaaaa;stroke-width:1.14731085"
       d="m 276.23449,243.61497 c -0.67643,-2.61013 -1.67952,-6.45271 -2.2291,-8.53909 -0.70478,-2.67559 -0.59862,-3.92576 0.36028,-4.24255 3.55476,-1.17441 28.81809,-7.45274 29.98901,-7.45274 1.14574,0 5.82785,15.8331 4.9436,16.71736 -0.17705,0.17705 -7.41211,2.10858 -16.07792,4.2923 l -15.756,3.97039 z"
       id="path78"
       inkscape:connector-curvature="0"
       transform="translate(9.9398434,16.071121)" />
    <path
       style="fill:#ffaaaa;stroke-width:1.14731085"
       d="m 319.36553,236.8615 c -1.6923,-5.28645 -4.13352,-14.92241 -3.8392,-15.15406 0.1951,-0.15356 7.44545,-2.12 16.1119,-4.36985 l 15.75717,-4.09064 1.22176,4.77999 c 0.67197,2.629 1.71958,6.29628 2.32803,8.14951 0.60845,1.85323 0.71228,3.71489 0.23073,4.13704 -0.96612,0.84693 -27.75187,7.98214 -29.96518,7.98214 -0.76236,0 -1.59271,-0.64536 -1.84521,-1.43413 z"
       id="path80"
       inkscape:connector-curvature="0"
       transform="translate(9.9398434,16.071121)" />
    <path
       style="fill:#ffaaaa;stroke-width:1.14731085"
       d="m 323.98214,257.75996 c -1.15137,-4.43913 -1.89625,-8.24725 -1.6553,-8.46249 0.24094,-0.21523 6.79924,-2.03452 14.57399,-4.04285 7.77475,-2.00833 14.82141,-3.91456 15.65925,-4.23607 1.08839,-0.41765 2.10683,1.89041 3.56682,8.08338 1.12391,4.76738 1.8216,8.84285 1.55041,9.05661 -0.83979,0.66196 -28.21033,7.67255 -29.95494,7.67255 -1.07648,0 -2.37187,-2.79536 -3.74023,-8.07113 z"
       id="path82"
       inkscape:connector-curvature="0"
       transform="translate(9.9398434,16.071121)" />
    <path
       style="fill:#ffaaaa;stroke-width:1.14731085"
       d="m 283.4685,269.32236 -2.21735,-8.82935 15.02033,-3.66412 c 8.26118,-2.01526 15.55134,-3.65379 16.20035,-3.64117 1.09331,0.0213 5.84963,15.88288 4.95712,16.53123 -0.22033,0.16005 -7.45265,2.1229 -16.07184,4.36188 l -15.67126,4.07088 z"
       id="path84"
       inkscape:connector-curvature="0"
       transform="translate(9.9398434,16.071121)" />
    <path
       style="fill:#ffaaaa;stroke-width:1.14731085"
       d="m 243.73891,280.66123 c -1.15654,-4.48958 -1.66071,-8.58108 -1.12051,-9.09338 0.9013,-0.85476 23.30849,-7.3355 28.43002,-8.2227 1.81679,-0.31472 2.5912,0.9071 4.37894,6.90883 1.1945,4.01013 1.93789,7.90077 1.65198,8.64585 -0.28592,0.74508 -6.90305,3.09113 -14.70474,5.21344 -7.80169,2.1223 -14.71324,4.05026 -15.359,4.28435 -0.64575,0.23409 -2.12026,-3.24728 -3.27669,-7.73639 z"
       id="path86"
       inkscape:connector-curvature="0"
       transform="translate(9.9398434,16.071121)" />
    <path
       style="fill:#ff9955;stroke-width:1.14731085"
       d="m 289.50692,337.75051 c -2.59532,-8.19638 -4.00671,-15.01289 -3.24564,-15.67533 1.38497,-1.20546 30.13139,-8.5015 30.81248,-7.82041 0.60635,0.60634 5.11642,16.26638 4.75157,16.49858 -0.11425,0.0727 -7.33575,1.98277 -16.04778,4.24457 -11.23248,2.91616 -15.96531,3.71684 -16.27063,2.75259 z"
       id="path88"
       inkscape:connector-curvature="0"
       transform="translate(9.9398434,16.071121)" />
    <path
       style="fill:#ff9955;stroke-width:1.14731085"
       d="m 327.86047,323.91555 c -0.67477,-2.60398 -1.67651,-6.44153 -2.22609,-8.52791 -0.70409,-2.67296 -0.59768,-3.93446 0.36027,-4.27095 0.74773,-0.26265 7.29685,-2.05473 14.55359,-3.9824 7.25674,-1.92768 13.8307,-3.72929 14.60879,-4.0036 1.2829,-0.45226 3.18938,4.54545 5.46624,14.32939 0.65575,2.81783 0.38429,2.94146 -15.43423,7.02912 l -16.10171,4.16084 z"
       id="path90"
       inkscape:connector-curvature="0"
       transform="translate(9.9398434,16.071121)" />
    <path
       style="fill:#ff9955;stroke-width:1.14731085"
       d="m 334.28602,344.15068 c -1.10015,-4.66661 -1.81916,-8.65274 -1.59779,-8.85807 0.22137,-0.20534 6.59796,-2.00236 14.17022,-3.99339 7.57225,-1.99103 14.55724,-3.8528 15.5222,-4.13726 1.33717,-0.3942 2.25297,1.41791 3.85035,7.61875 1.15278,4.47499 1.65396,8.55483 1.1138,9.06682 -0.54014,0.51197 -7.74927,2.69869 -16.02028,4.85937 l -15.03822,3.92852 z"
       id="path92"
       inkscape:connector-curvature="0"
       transform="translate(9.9398434,16.071121)" />
    <path
       style="fill:#ff7f2a;stroke-width:1.14731085"
       d="m 295.77389,358.47645 c -0.69574,-2.68184 -1.70437,-6.54592 -2.2414,-8.58685 -0.95665,-3.63565 -0.87966,-3.73603 3.80221,-4.95794 2.62824,-0.68593 9.61242,-2.54618 15.5204,-4.13388 5.90797,-1.5877 11.12318,-2.45437 11.58934,-1.92593 1.07301,1.21636 4.95537,15.35994 4.37543,15.93988 -0.39194,0.39194 -30.28943,8.54079 -31.3355,8.54079 -0.24503,0 -1.01474,-2.19423 -1.71048,-4.87607 z"
       id="path94"
       inkscape:connector-curvature="0"
       transform="translate(9.9398434,16.071121)" />
    <path
       style="fill:#ff7f2a;stroke-width:1.14731085"
       d="m 288.34603,332.01868 c -2.68505,-9.04154 -2.4826,-9.58539 4.30198,-11.55643 8.33079,-2.42024 20.56879,-5.25943 22.75811,-5.27983 2.0565,-0.0192 6.40198,13.46444 4.83103,14.9902 -0.9632,0.93551 -16.64612,5.11617 -25.15654,6.70608 l -5.01318,0.93657 z"
       id="path96"
       inkscape:connector-curvature="0"
       transform="translate(9.9398434,16.071121)" />
    <path
       style="fill:#ff7f2a;stroke-width:1.14731085"
       d="m 327.44501,320.18578 c -1.05,-4.18006 -1.68265,-7.82655 -1.40589,-8.10331 1.09161,-1.0916 28.62137,-8.31261 29.53611,-7.74727 1.0121,0.62551 4.47729,11.31728 4.47729,13.81457 0,0.78129 -2.45238,2.21335 -5.44973,3.18235 -5.04869,1.63218 -23.51605,6.45376 -24.71885,6.45376 -0.29142,0 -1.38894,-3.42004 -2.43893,-7.6001 z"
       id="path98"
       inkscape:connector-curvature="0"
       transform="translate(9.9398434,16.071121)" />
    <path
       style="fill:#ff7f2a;stroke-width:1.14731085"
       d="m 334.88024,344.33435 c -0.85235,-4.28816 -1.06702,-7.95774 -0.49731,-8.50109 0.55132,-0.52582 7.14108,-2.5942 14.64391,-4.59639 11.02609,-2.9424 13.82525,-3.34724 14.59987,-2.11153 1.47128,2.34706 3.77122,13.49648 2.9529,14.3148 -0.64814,0.64814 -27.92002,8.43927 -29.54061,8.43927 -0.36247,0 -1.33391,-3.39528 -2.15876,-7.54506 z"
       id="path100"
       inkscape:connector-curvature="0"
       transform="translate(9.9398434,16.071121)" />
    <path
       style="fill:#6600ff;stroke-width:1.14731085"
       d="m 418.56538,378.84122 v -16.63601 h 8.60483 8.60483 v 16.63601 16.636 h -8.60483 -8.60483 z"
       id="path102"
       inkscape:connector-curvature="0"
       transform="translate(9.9398434,16.071121)" />
    <path
       style="fill:#6600ff;stroke-width:1.14731085"
       d="m 417.41807,310.00256 v -16.636 h 9.17848 9.17849 v 16.636 16.63601 h -9.17849 -9.17848 z"
       id="path104"
       inkscape:connector-curvature="0"
       transform="translate(9.9398434,16.071121)" />
    <path
       style="fill:#6600ff;stroke-width:1.14731085"
       d="m 417.41807,264.11013 v -16.63601 h 9.17848 9.17849 v 16.63601 16.63601 h -9.17849 -9.17848 z"
       id="path106"
       inkscape:connector-curvature="0"
       transform="translate(9.9398434,16.071121)" />
    <path
       style="fill:#6600ff;stroke-width:1.14731085"
       d="m 417.41807,195.27148 v -16.63601 h 9.17848 9.17849 v 16.63601 16.636 h -9.17849 -9.17848 z"
       id="path108"
       inkscape:connector-curvature="0"
       transform="translate(9.9398434,16.071121)" />
    <path
       style="fill:#6600ff;stroke-width:1.14731085"
       d="M 417.41807,156.26291 V 139.6269 h 9.17848 9.17849 v 16.63601 16.636 h -9.17849 -9.17848 z"
       id="path110"
       inkscape:connector-curvature="0"
       transform="translate(9.9398434,16.071121)" />
    <path
       style="fill:#55d400;stroke-width:1.14731085"
       d="m 179.47484,361.06083 c -4.34907,-7.46915 -7.91489,-14.01033 -7.92403,-14.53595 -0.009,-0.52562 3.26407,-2.85258 7.27381,-5.17102 l 7.29044,-4.21533 8.27587,13.96748 c 6.21046,10.48161 7.94342,14.28406 6.94379,15.23602 -0.73263,0.69769 -4.17166,2.8504 -7.64228,4.7838 l -6.3102,3.51526 z"
       id="path112"
       inkscape:connector-curvature="0"
       transform="translate(9.9398434,16.071121)" />
    <path
       style="fill:#00d400;stroke-width:1.14731085"
       d="m 160.1649,332.05619 c -2.98014,-5.18827 -6.69751,-11.53522 -8.26083,-14.10434 l -2.84239,-4.67114 7.21487,-4.22052 c 3.96818,-2.32129 7.53677,-4.22053 7.93019,-4.22053 0.85905,0 17.22943,27.56473 16.67695,28.08093 -0.93417,0.8728 -14.21085,8.62419 -14.72671,8.59796 -0.31551,-0.016 -3.01195,-4.2741 -5.99208,-9.46236 z"
       id="path114"
       inkscape:connector-curvature="0"
       transform="translate(9.9398434,16.071121)" />
    <path
       style="fill:#00d400;stroke-width:1.14731085"
       d="m 117.25867,263.24564 -8.16878,-14.0178 7.02147,-4.27828 c 3.86181,-2.35306 7.34225,-4.29651 7.73432,-4.31879 0.70074,-0.0398 17.07046,26.73674 17.07046,27.92279 0,0.58666 -14.08668,8.77155 -15.02529,8.73026 -0.25487,-0.0112 -4.13935,-6.32839 -8.63218,-14.03818 z"
       id="path116"
       inkscape:connector-curvature="0"
       transform="translate(9.9398434,16.071121)" />
    <path
       style="fill:#00d400;stroke-width:1.14731085"
       d="m 97.763817,229.95607 -8.159346,-14.01159 7.012035,-4.27261 c 3.856624,-2.34993 7.362644,-4.29084 7.791164,-4.31312 0.70278,-0.0365 17.00419,26.6875 17.00419,27.87616 0,0.64859 -13.69273,8.80721 -14.71044,8.76501 -0.42804,-0.0178 -4.44996,-6.33748 -8.937603,-14.04385 z"
       id="path118"
       inkscape:connector-curvature="0"
       transform="translate(9.9398434,16.071121)" />
  </g>
</svg>
