<?xml version="1.0" standalone="no"?>
<!DOCTYPE svg PUBLIC "-//W3C//DTD SVG 20010904//EN"
 "http://www.w3.org/TR/2001/REC-SVG-20010904/DTD/svg10.dtd">
<svg version="1.0" xmlns="http://www.w3.org/2000/svg"
 width="400.000000pt" height="400.000000pt" viewBox="0 0 400.000000 400.000000"
 preserveAspectRatio="xMidYMid meet">
<metadata>
Created by potrace 1.15, written by Peter Selinger 2001-2017
</metadata>
<g transform="translate(0.000000,400.000000) scale(0.100000,-0.100000)"
fill="#000000" stroke="none">
<path d="M0 2000 l0 -2000 2000 0 2000 0 0 2000 0 2000 -2000 0 -2000 0 0
-2000z m2912 1098 c79 -37 142 -98 181 -177 l32 -66 0 -855 0 -855 -32 -66
c-39 -79 -102 -140 -181 -177 l-57 -27 -855 0 -855 0 -66 32 c-79 39 -140 102
-177 181 l-27 57 -3 842 c-2 834 -2 842 19 898 38 103 111 178 215 220 l59 25
845 -3 845 -2 57 -27z"/>
<path d="M1338 2704 c-59 -32 -58 -15 -58 -704 0 -692 -2 -673 60 -705 44 -23
1276 -23 1320 0 62 32 60 13 60 705 0 692 2 673 -60 705 -43 22 -1281 22
-1322 -1z m949 -416 c23 -21 23 -22 23 -287 0 -258 -1 -265 -22 -288 -21 -23
-23 -23 -283 -23 -250 0 -264 1 -289 21 l-26 20 0 267 c0 259 1 266 22 289 21
23 22 23 287 23 258 0 265 -1 288 -22z"/>
</g>
</svg>
